<svg height="100" viewBox="0 0 100 100" width="100" xmlns="http://www.w3.org/2000/svg"><path d="m35.582031 93.671875c1.421875-.613281 2.417969-2.027344 2.417969-3.671875v-10.800781c0-.394531.03125-.804688.082031-1.21875-.027343.007812-.054687.011719-.082031.019531 0 0-6 0-7.199219 0-3 0-5.601562-1.199219-6.800781-3.601562-1.398438-2.597657-2-7-5.601562-9.398438-.597657-.398438-.199219-1 1-1 1.203124.199219 3.800781 1.800781 5.402343 4 1.800781 2.199219 3.597657 4 6.800781 4 4.972657 0 7.636719-.25 9.242188-1.109375 1.867188-2.777344 4.453125-4.890625 7.15625-4.890625v-.050781c-11.335938-.363281-18.578125-4.132813-21.949219-9.949219-7.332031.085938-13.710937.808594-17.355469 1.414062-.117187-.652343-.214843-1.3125-.300781-1.972656 3.59375-.59375 9.683594-1.296875 16.691407-1.429687-.226563-.550781-.421876-1.117188-.582032-1.699219-7.023437-.355469-13.082031-.078125-16.375.195312-.039062-.664062-.09375-1.324218-.101562-1.996093 3.296875-.273438 9.191406-.542969 16.035156-.222657-.160156-1-.261719-2.023437-.261719-3.085937 0-3.402344 1.203125-7 3.402344-10-1-3.402344-2.402344-10.601563.398437-13.199219 5.402344 0 9.199219 2.597656 11 4.199219 3.398438-1.402344 7.199219-2.203125 11.398438-2.203125s8 .800781 11.199219 2.199219c1.800781-1.597657 5.601562-4.199219 11-4.199219 3 2.800781 1.402343 10 .402343 13.199219 2.199219 3 3.398438 6.402343 3.199219 10 0 .96875-.089843 1.902343-.222656 2.820312 7-.34375 13.054687-.070312 16.410156.203125-.003906.671875-.066406 1.332032-.101562 1.996094-3.34375-.273438-9.550781-.558594-16.71875-.175781-.179688.671875-.394531 1.324219-.648438 1.960937 7.089844.089844 13.328125.777344 17.09375 1.375-.085937.664063-.183593 1.324219-.300781 1.976563-3.824219-.613281-10.34375-1.328125-17.757812-1.367188-3.332032 5.757813-10.441407 9.511719-21.554688 9.949219v.0625c5.199219 0 10 7.800781 10 13.199219v10.800781c0 1.644531.996094 3.058594 2.417969 3.671875 18.320312-6.0625 31.582031-23.34375 31.582031-43.671875 0-25.363281-20.632812-46-46-46s-46 20.636719-46 46c0 20.328125 13.261719 37.609375 31.582031 43.671875zm0 0" fill="#fff"/></svg>