<svg height="100" viewBox="0 0 100 100" width="100" xmlns="http://www.w3.org/2000/svg"><path d="m50 4c-25.367188 0-46 20.632812-46 46s20.632812 46 46 46 46-20.632812 46-46-20.632812-46-46-46zm22.472656 37.046875c.019532.472656.035156.953125.035156 1.433594 0 14.636719-11.148437 31.519531-31.527343 31.519531-6.253907 0-12.082031-1.835938-16.980469-4.976562.867188.101562 1.742188.152343 2.640625.152343 5.195313 0 9.972656-1.769531 13.757813-4.738281-4.847657-.089844-8.933594-3.300781-10.347657-7.695312.675781.128906 1.371094.199218 2.085938.199218 1.011719 0 1.992187-.132812 2.917969-.390625-5.066407-1.019531-8.882813-5.492187-8.882813-10.863281 0-.046875 0-.09375 0-.140625 1.492187.832031 3.199219 1.332031 5.019531 1.390625-2.976562-1.992188-4.929687-5.378906-4.929687-9.222656 0-2.03125.542969-3.933594 1.5-5.574219 5.464843 6.703125 13.628906 11.113281 22.835937 11.578125-.191406-.8125-.292968-1.65625-.292968-2.523438 0-6.121093 4.960937-11.078124 11.082031-11.078124 3.183593 0 6.0625 1.34375 8.082031 3.496093 2.523438-.496093 4.898438-1.417969 7.039062-2.683593-.828124 2.582031-2.585937 4.753906-4.875 6.125 2.242188-.269532 4.375-.863282 6.363282-1.746094-1.480469 2.222656-3.359375 4.175781-5.523438 5.738281zm0 0" fill="#fff"/></svg>