<svg height="100" viewBox="0 0 100 100" width="100" xmlns="http://www.w3.org/2000/svg"><path d="m50 4c-25.363281 0-46 20.636719-46 46 0 7.921875 2.046875 15.707031 5.925781 22.578125l-5.851562 20.882813c-.191407.683593-.007813 1.421874.488281 1.929687.382812.394531.902344.609375 1.4375.609375.160156 0 .320312-.019531.480469-.058594l21.792969-5.398437c6.652343 3.574219 14.148437 5.457031 21.726562 5.457031 25.363281 0 46-20.636719 46-46s-20.636719-46-46-46zm23.140625 62.230469c-.984375 2.726562-5.703125 5.210937-7.972656 5.546875-2.035157.296875-4.613281.425781-7.441407-.464844-1.710937-.539062-3.914062-1.253906-6.730468-2.457031-11.847656-5.050781-19.582032-16.828125-20.175782-17.609375-.589843-.777344-4.820312-6.320313-4.820312-12.058594s3.050781-8.558594 4.132812-9.726562c1.085938-1.167969 2.363282-1.460938 3.152344-1.460938.785156 0 1.574219.011719 2.261719.042969.726563.035156 1.699219-.273438 2.660156 2 .984375 2.335937 3.34375 8.074219 3.636719 8.660156.296875.585937.492188 1.265625.101562 2.042969-.394531.78125-.589843 1.265625-1.179687 1.949218-.59375.679688-1.242187 1.519532-1.773437 2.042969-.59375.582031-1.207032 1.210938-.519532 2.378907.6875 1.167968 3.058594 4.988281 6.570313 8.078124 4.511719 3.972657 8.316406 5.203126 9.496093 5.789063 1.179688.582031 1.871094.484375 2.558594-.292969.6875-.78125 2.953125-3.40625 3.738282-4.570312.785156-1.167969 1.574218-.976563 2.65625-.585938 1.085937.390625 6.890624 3.207032 8.070312 3.792969 1.179688.582031 1.96875.875 2.265625 1.363281.296875.484375.296875 2.820313-.6875 5.539063zm0 0" fill="#fff"/></svg>